<svg width="150" height="46" viewBox="0 0 150 46" fill="none" xmlns="http://www.w3.org/2000/svg">
<path d="M12.278 32.988C10.136 33.258 7.976 33.312 5.87 32.718C4.304 32.286 2.882 31.566 1.784 30.306C0.596 28.902 0.308 27.3 0.758 25.536C0.83 25.266 0.92 24.996 1.082 24.744C1.028 25.086 0.938 25.446 0.92 25.806C0.902 26.166 0.758 26.526 0.938 26.886L1.082 25.878C1.154 25.536 1.208 25.194 1.316 24.87C1.712 23.664 2.18 22.494 2.954 21.468C3.098 21.288 3.224 21.108 3.368 20.946C4.214 19.974 5.096 19.038 6.122 18.246C7.85 16.896 9.668 15.654 11.63 14.646C13.79 13.53 15.932 12.414 18.182 11.514C18.47 11.406 18.668 11.226 18.794 10.938L20.648 7.212C20.666 7.176 20.702 7.14 20.792 7.014C20.828 7.338 20.846 7.572 20.882 7.806C21.17 7.68 21.08 7.338 21.134 7.032C21.35 7.158 21.494 7.248 21.638 7.32C21.872 7.698 21.782 8.022 21.62 8.346C21.26 9.102 20.9 9.84 20.522 10.65C21.44 10.326 22.304 10.038 23.168 9.714C23.888 9.462 24.608 9.228 25.31 8.922C26.228 8.508 27.128 8.04 28.046 7.59C28.532 7.338 29 7.05 29.378 6.636C29.648 6.348 29.666 6.366 29.81 5.88C29.504 5.682 29.144 5.646 28.802 5.61C28.226 5.52 27.632 5.448 27.038 5.43C24.842 5.358 22.646 5.412 20.45 5.574C19.316 5.664 18.182 5.718 17.048 5.826C15.788 5.952 14.528 6.114 13.268 6.276C12.476 6.366 11.666 6.51 10.856 6.6C10.19 6.69 9.524 6.726 8.84 6.78C8.732 6.798 8.606 6.816 8.498 6.852C7.202 7.23 5.906 7.608 4.61 8.004C4.214 8.112 3.8 8.22 3.422 8.346L3.332 9.03C3.152 8.94 2.99 8.868 2.792 8.778C2.864 8.958 2.918 9.102 2.99 9.264C2.702 9.354 2.558 9.192 2.45 8.94C2.54 8.742 2.63 8.526 2.738 8.256C2.63 8.31 2.54 8.31 2.522 8.346C2.432 8.508 2.36 8.67 2.288 8.832C1.946 8.76 1.838 8.526 1.748 8.256C1.874 7.86 2.162 7.644 2.504 7.482L4.322 6.636C5.222 6.204 6.158 5.934 7.13 5.718C7.31 5.682 7.49 5.646 7.67 5.592C8.948 5.142 10.28 5.016 11.594 4.818C12.278 4.71 12.98 4.656 13.664 4.62C14.06 4.602 14.474 4.674 14.87 4.692C15.032 4.71 15.194 4.71 15.356 4.62C15.212 4.602 15.05 4.566 14.888 4.548C15.086 4.35 15.338 4.35 15.572 4.314C16.886 4.206 18.2 4.098 19.514 3.972C21.62 3.81 23.708 3.702 25.814 3.738C26.966 3.738 28.118 3.756 29.252 4.008C29.594 4.098 29.936 4.206 30.242 4.35C30.584 4.512 30.782 4.764 30.818 5.178C30.818 5.412 31.016 5.628 31.142 5.844C30.926 7.14 30.044 7.932 28.982 8.58C28.712 8.76 28.424 8.904 28.172 9.156C28.316 9.156 28.442 9.174 28.568 9.156C29.054 9.138 29.522 9.084 29.99 9.084C31.322 9.102 32.654 9.192 33.986 9.174C36.02 9.138 38 9.408 39.962 9.912C40.772 10.128 41.564 10.416 42.302 10.866C43.886 11.856 44.858 13.98 43.85 16.05C43.238 17.31 42.356 18.336 41.366 19.308C39.8 20.838 38.054 22.152 36.218 23.34C35.336 23.916 34.382 24.384 33.464 24.924C32.996 25.194 32.564 25.518 32.114 25.806C31.988 25.896 31.862 25.986 31.718 26.058C27.272 28.47 22.646 30.468 17.786 31.854C16.958 32.088 16.094 32.214 15.266 32.448C14.276 32.718 13.286 32.88 12.278 32.988ZM25.022 10.686L27.398 10.344L27.164 10.218L27.326 10.02C26.822 9.948 26.354 10.092 25.868 10.164C25.526 10.218 25.328 10.47 25.022 10.686ZM14.204 31.584C14.69 31.404 15.14 31.224 15.518 31.08C15.626 30.9 15.68 30.774 15.752 30.666C16.202 30.576 16.634 30.504 17.066 30.396C17.75 30.234 18.47 30.144 19.118 29.856C19.496 29.676 19.892 29.514 20.288 29.37C20.828 29.19 21.386 29.046 21.926 28.884C22.322 28.758 22.736 28.686 23.114 28.542C24.248 28.092 25.364 27.642 26.48 27.174C27.47 26.76 28.46 26.328 29.45 25.914C29.936 25.716 30.422 25.536 30.872 25.284C31.34 25.05 31.754 24.744 32.186 24.456C32.24 24.42 32.294 24.384 32.294 24.366C32.276 23.934 32.654 23.862 32.906 23.7C34.31 22.8 35.732 21.918 37.136 20.982C38.522 20.064 39.836 19.002 40.988 17.778C41.906 16.806 42.752 15.762 42.932 14.358C43.022 13.674 42.86 13.062 42.266 12.666C41.798 12.36 41.294 12.126 40.772 11.91C39.89 11.514 38.918 11.334 38.036 10.884C37.982 10.848 37.856 10.902 37.748 10.92C37.82 10.992 37.856 11.028 37.928 11.082C37.748 11.082 37.64 11.1 37.532 11.082C36.47 10.974 35.408 10.884 34.346 10.758C33.86 10.704 33.374 10.74 32.906 10.542C32.69 10.452 32.384 10.47 32.132 10.506C30.8 10.704 29.45 10.704 28.118 10.794C27.758 10.812 27.38 10.794 27.02 10.866C26.3 10.992 25.58 11.154 24.842 11.298L22.592 11.676C22.7 11.856 22.808 12 22.898 12.126C22.772 12.504 22.772 12.504 22.43 12.63L21.962 12.378C21.926 12.252 21.908 12.126 21.854 11.964C21.152 11.892 20.54 12.198 19.874 12.27C19.892 12.306 19.91 12.36 19.928 12.432C19.478 12.648 19.478 12.648 19.226 13.08C18.938 13.656 18.614 14.214 18.326 14.79C17.948 15.546 17.606 16.302 17.228 17.058C16.76 17.958 16.472 18.93 16.148 19.812C16.184 19.974 16.202 20.082 16.238 20.172C16.31 20.37 16.238 20.514 16.094 20.604C15.932 20.694 15.77 20.676 15.608 20.55C15.392 20.388 15.284 20.172 15.374 19.884C15.464 19.578 15.608 19.272 15.68 18.948C15.77 18.516 15.968 18.138 16.148 17.742C16.364 17.274 16.634 16.824 16.706 16.356C16.868 15.474 17.246 14.718 17.606 13.944C17.714 13.728 17.822 13.512 17.93 13.26C17.588 13.404 17.3 13.494 17.012 13.62C16.49 13.854 15.968 14.106 15.446 14.358C13.16 15.492 10.874 16.626 8.75 18.048C6.248 19.74 4.07 21.756 2.648 24.474C2.288 25.158 2.018 25.86 1.928 26.634C1.892 26.922 1.856 27.21 1.82 27.426C1.892 27.678 1.928 27.894 1.982 28.092C2.072 28.362 2.108 28.632 2.234 28.866C2.396 29.154 2.558 29.46 2.882 29.64C3.224 29.82 3.548 30.018 3.872 30.216C3.872 30.252 3.854 30.288 3.854 30.306H3.314C4.754 31.386 5.42 31.44 6.302 31.35C6.122 31.26 5.978 31.188 5.816 31.116C5.852 31.098 5.87 31.062 5.888 31.08C5.942 31.08 5.978 31.098 6.032 31.098C8.066 31.548 10.1 31.656 12.17 31.35C12.512 31.296 12.926 31.188 13.214 31.332C13.574 31.476 13.862 31.386 14.186 31.35C14.186 31.422 14.186 31.458 14.204 31.584ZM32.204 24.96C32.672 24.69 33.05 24.492 33.428 24.276C33.068 24.312 32.726 24.51 32.204 24.96ZM1.478 27.156C1.694 26.652 1.766 26.148 1.622 25.608C1.568 26.13 1.532 26.652 1.478 27.156ZM51.4663 15.744C51.3763 15.672 51.3403 15.636 51.2503 15.582C50.9263 16.284 50.6023 16.95 50.2963 17.652C50.5663 17.364 50.8363 17.058 51.1063 16.752L51.3763 16.482C51.5923 16.626 51.5023 16.788 51.4303 16.932C51.1963 17.382 50.9443 17.814 50.7103 18.264C50.4763 18.732 50.2063 19.182 49.9903 19.65C49.8103 20.046 49.4863 20.262 49.2343 20.622L48.9463 20.352C48.9103 20.37 48.8563 20.388 48.7843 20.442L48.5143 20.262C48.5683 20.118 48.6043 19.992 48.6763 19.848C48.7483 19.686 48.8743 19.524 48.8203 19.308C48.8023 19.2 48.8743 19.056 48.9283 18.93C49.1443 18.444 49.3783 17.958 49.6123 17.472C49.6843 17.328 49.7383 17.184 49.7383 16.986C49.6303 17.076 49.5223 17.166 49.4323 17.256C48.6943 17.904 47.9743 18.57 47.2183 19.218C46.6963 19.65 46.1383 20.046 45.4723 20.262C45.1303 20.388 44.8063 20.46 44.5002 20.172C44.4463 20.118 44.3203 20.118 44.2303 20.1C43.9062 20.046 43.7622 19.848 43.7622 19.524C43.7442 18.786 44.0143 18.138 44.3743 17.544C44.5543 17.238 44.7883 16.986 44.9863 16.716C45.1123 16.536 45.2743 16.356 45.2203 16.104C45.2023 16.05 45.2563 15.978 45.2743 15.924C45.6523 15.294 46.0663 14.7 46.6063 14.178C46.7323 14.196 46.8043 14.16 46.7143 14.016C47.0203 13.386 47.5423 12.972 48.0643 12.558C48.3343 12.36 48.5143 12.432 48.8383 12.81C48.4243 13.008 47.9203 12.918 47.5603 13.368C47.5963 13.386 47.6863 13.458 47.7403 13.44C48.0823 13.332 48.4243 13.206 48.8383 13.062C48.8923 13.08 49.0183 13.152 49.1623 13.206C49.1623 13.35 49.1803 13.476 49.1982 13.566C49.0723 13.584 48.9643 13.584 48.8203 13.602L49.0543 14.088C48.8743 14.052 48.7303 14.052 48.5322 14.016C47.9203 14.718 47.1823 15.384 46.6243 16.176C46.0663 16.968 45.6883 17.868 45.1663 18.822C45.7243 18.66 46.0663 18.354 46.5343 18.102C46.3903 18.084 46.3183 18.066 46.2283 18.066C46.2463 18.03 46.2463 17.994 46.2463 17.976C47.0923 17.274 47.9023 16.536 48.7663 15.87C49.2703 15.456 49.8103 15.096 50.2783 14.628C50.6563 14.268 51.0703 13.944 51.4663 13.602C51.5923 13.494 51.7183 13.368 51.8443 13.242L51.8263 13.26C51.9703 13.26 52.1143 13.242 52.2403 13.224C52.4383 13.44 52.4023 13.638 52.3123 13.836C52.0243 14.466 51.7543 15.096 51.4663 15.744ZM50.6563 15.456C50.6743 15.438 50.6383 15.384 50.6383 15.348C50.6203 15.366 50.5663 15.384 50.5663 15.402V15.528C50.6023 15.51 50.6383 15.492 50.6563 15.456ZM49.6123 16.662C50.2063 16.536 50.4403 16.104 50.5483 15.546C50.4583 15.582 50.3863 15.6 50.3143 15.654L49.1443 16.788C49.3243 16.788 49.4503 16.68 49.6123 16.662ZM45.4183 17.508L45.1303 17.994C45.1663 18.012 45.2023 18.03 45.2383 18.066C45.3283 17.886 45.4183 17.724 45.5083 17.562L45.4183 17.508ZM50.1343 17.94C50.1523 17.94 50.1703 17.958 50.1883 17.958L50.2243 17.778L50.1343 17.94ZM45.9403 19.218C46.3903 19.002 46.7323 18.732 47.0563 18.408C46.7143 18.444 46.2643 18.786 45.9403 19.218ZM54.3346 20.046C53.2366 20.37 52.5166 19.488 52.4446 18.768C52.4266 18.498 52.4446 18.21 52.4986 17.958C52.7146 16.95 53.0926 16.014 53.7586 15.222C54.0826 14.844 54.3526 14.448 54.6946 14.088C54.9106 13.872 55.1986 13.674 55.4686 13.53C55.6846 13.404 55.8286 13.26 55.9366 13.044C56.1706 12.522 56.6746 12.36 57.1606 12.306C57.4666 12.252 57.6466 12.522 57.7366 12.72C57.9526 12.846 58.1326 12.9 58.2046 13.008C58.3306 13.224 58.4926 13.494 58.3666 13.746C58.2226 14.034 58.2946 14.268 58.3486 14.556C58.5286 15.24 58.5646 15.942 58.4926 16.644C58.4386 17.22 58.1866 17.706 57.8986 18.192C57.5206 18.84 56.9446 19.398 56.2786 19.776C55.8286 19.668 55.3966 19.632 54.9646 19.812C54.7666 19.902 54.5506 19.992 54.3346 20.046ZM53.2546 17.292C53.5426 16.788 53.9926 16.446 54.4426 16.104C54.7486 15.87 55.0366 15.636 55.2526 15.294C55.3966 15.078 55.6126 14.916 55.8106 14.736C56.0086 14.556 56.2246 14.376 56.4226 14.178C56.5846 14.016 56.7286 13.818 56.9086 13.584L56.7646 13.386C56.4946 13.566 56.2426 13.728 55.9906 13.908C55.3426 14.34 54.9106 15.006 54.2986 15.51C53.7586 15.96 53.5426 16.662 53.2546 17.292ZM54.4786 19.344C54.7126 19.29 54.9286 19.2 55.1806 19.164C55.6486 19.074 56.0086 18.822 56.2966 18.444C56.6206 18.012 57.0706 17.688 57.2866 17.184C57.3046 17.148 57.4126 17.166 57.5026 17.166C57.8266 16.734 57.7366 16.194 57.7006 15.6C57.5566 16.014 57.4306 16.374 57.3226 16.734C57.5566 15.816 57.5026 14.934 57.1606 13.962L57.0886 14.304C57.0526 14.25 57.0166 14.196 56.9986 14.142H56.9086C56.2606 14.556 55.6846 15.114 55.1266 15.672C54.6946 16.086 54.4066 16.59 54.1006 17.094C53.7766 17.598 53.5966 18.174 53.7406 18.822C54.0466 18.876 54.3346 18.912 54.6226 18.966C54.6226 18.984 54.6226 19.002 54.6046 19.02H53.8126C53.9746 19.326 54.1726 19.434 54.4786 19.344ZM65.3713 14.754C65.7133 15.258 65.8753 15.834 65.7133 16.464C65.3893 17.688 65.0833 18.894 64.7773 20.118L64.5613 20.964C64.5253 21.126 64.4893 21.306 64.5433 21.45C64.6333 21.81 64.5433 22.08 64.2553 22.368C64.0393 22.476 63.7693 22.53 63.5533 22.278C63.4993 22.206 63.4093 22.188 63.3373 22.152C62.9953 21.99 62.9053 21.828 62.9773 21.468L63.4453 19.542C63.5713 19.002 63.7153 18.48 63.8773 17.94C63.9493 17.634 63.9853 17.292 64.2373 17.04C64.2913 17.004 64.3273 16.896 64.3273 16.824C64.3993 16.626 64.4533 16.392 64.4893 16.176C64.5073 15.978 64.4713 15.798 64.4533 15.6C64.1293 15.546 63.8953 15.636 63.6613 15.744C62.1673 16.428 60.8893 17.4 59.8093 18.642C59.7192 18.75 59.5933 18.894 59.4493 18.948C59.1793 19.056 59.0353 18.93 59.0533 18.642C59.1073 18.282 59.1973 17.922 59.2873 17.562C59.4493 16.806 59.8453 16.122 60.1873 15.438L60.6733 14.52C60.6373 14.52 60.5653 14.538 60.4753 14.538C60.7993 13.926 61.1053 13.314 61.6093 12.792C61.7173 12.882 61.7713 12.936 61.8793 13.062C61.7173 13.206 61.5733 13.332 61.4293 13.476C61.6273 13.8 61.5553 14.16 61.4833 14.52C61.7533 14.124 62.0413 13.8 62.3113 13.386C62.3293 13.458 62.3473 13.548 62.3473 13.62C62.3473 13.692 62.2573 13.782 62.2753 13.8C62.5093 14.16 62.2393 14.376 62.0413 14.61C61.9153 14.79 61.8073 15.006 61.7533 15.222L62.7253 14.736C62.6533 14.934 62.6173 15.006 62.5633 15.168C62.8333 15.078 63.0853 14.988 63.3553 14.88C63.2653 14.808 63.2113 14.772 63.1393 14.736C63.8232 13.782 64.9393 14.124 65.3713 14.754ZM60.7093 14.502C60.8353 14.448 60.9613 14.376 60.8533 14.196C60.8173 14.268 60.7633 14.304 60.7093 14.376C60.6913 14.412 60.7093 14.448 60.7093 14.502ZM97.3883 11.442C97.7123 12.234 97.3883 13.53 96.7043 14.07C96.6143 14.142 96.5423 14.232 96.4523 14.322C96.3083 14.448 96.1463 14.43 96.0023 14.34C95.9663 14.016 96.5243 14.016 96.3443 13.62L95.9123 13.674C95.9303 13.53 95.9303 13.386 95.9483 13.152L95.3903 13.908C95.3543 13.548 95.5343 13.35 95.7323 13.17C96.1643 12.738 96.2723 12.072 95.9663 11.478C95.9483 11.424 95.8943 11.37 95.8583 11.316C95.8223 11.28 95.7683 11.262 95.7143 11.208C95.6783 11.244 95.6423 11.298 95.5703 11.388C94.7963 11.046 94.0223 11.388 93.2303 11.514C92.7803 11.586 92.3483 11.802 91.9163 11.982C91.0883 12.324 90.2603 12.684 89.4503 13.044L89.0003 13.278L88.7303 14.754C88.3163 17.202 87.9023 19.65 87.4703 22.098C87.0923 24.222 86.6963 26.328 86.2823 28.434C86.1743 29.028 85.9943 29.622 85.8683 30.216C85.7963 30.558 85.7423 30.918 85.7063 31.26C85.5803 32.394 85.3283 33.492 85.0223 34.59C85.0043 34.698 84.9683 34.788 84.9683 34.896C84.8063 36.642 84.3203 38.334 83.8883 40.044C83.8343 40.242 83.6723 40.44 83.8163 40.674C83.8163 40.692 83.7623 40.746 83.7443 40.782C83.6723 40.98 83.5283 41.196 83.5643 41.376C83.6363 42.168 83.3303 42.87 83.1143 43.59C83.0423 43.842 82.9163 44.076 82.7183 44.31C82.7183 44.22 82.7003 44.148 82.7183 44.076C82.8443 43.608 83.0783 43.176 83.0423 42.69L82.8263 43.104L82.3043 44.076C82.1783 44.274 81.9803 44.4 81.7643 44.508C81.3863 44.688 81.0263 44.904 80.6123 45.138V44.328C80.8643 44.148 81.1523 44.022 81.3143 43.806C81.5123 43.536 81.6563 43.176 81.7463 42.852C82.1243 41.268 82.5203 39.684 82.8443 38.1C83.6183 34.194 84.3923 30.306 85.1483 26.4C85.5803 24.132 85.9583 21.864 86.3903 19.614C86.5163 18.93 86.7323 18.264 86.8763 17.598C87.0203 16.932 87.1103 16.284 87.2183 15.618L87.4343 14.664C87.4883 14.466 87.5243 14.25 87.5783 13.926L86.7143 14.358C83.1503 16.212 80.0363 18.624 77.3903 21.63C76.6523 22.494 75.9863 23.412 75.2843 24.312C75.1763 24.456 75.0863 24.672 75.0683 24.852C75.0323 25.158 74.8163 25.32 74.6183 25.5C74.4203 25.68 74.1863 25.752 73.9163 25.59C73.8623 25.572 73.7543 25.608 73.6823 25.626C73.5203 25.41 73.5203 25.41 73.5563 25.104L73.3583 25.158C73.3403 25.104 73.3043 25.05 73.3223 25.014C73.3943 24.816 73.4123 24.654 73.2143 24.51C73.1783 24.492 73.1423 24.474 73.1423 24.438C73.1243 24.312 73.0883 24.186 73.1063 24.06C73.1783 23.718 72.9623 23.394 73.1783 23.034C73.6643 22.242 74.0783 21.432 74.5283 20.64C74.5463 20.586 74.6003 20.496 74.6363 20.478C75.0323 20.352 75.0323 20.01 75.1223 19.686C75.1763 19.488 75.2303 19.272 75.3383 19.074C78.3263 13.8 81.4943 8.634 85.0763 3.738C85.5083 3.162 85.9223 2.55 86.4983 2.082C86.6783 1.938 86.8403 1.794 87.1283 1.722C87.3803 1.668 87.5963 1.38 87.8123 1.182C87.9563 1.074 88.1003 0.947999 88.2443 0.857999C88.4963 0.677999 88.7483 0.677999 89.0003 0.857999C89.1983 1.02 89.4143 1.182 89.6303 1.344C90.1163 1.704 90.2423 2.244 90.2423 2.82C90.2063 3.612 90.1523 4.404 90.0983 5.196C89.9543 7.086 89.6663 8.958 89.3243 10.83C89.2523 11.19 89.2163 11.568 89.1623 12C89.6303 11.856 90.0803 11.748 90.4943 11.586C91.3223 11.244 92.1683 10.938 92.9603 10.524C93.6803 10.164 94.4543 10.146 95.2103 10.056C95.9843 9.966 97.1003 10.74 97.3883 11.442ZM89.0003 3.234C89.0363 2.802 89.0183 2.37 88.8203 1.92C88.4423 2.226 88.0643 2.46 87.7763 2.766C87.3443 3.216 86.9663 3.702 86.5883 4.188C85.2923 5.862 83.9963 7.536 82.7183 9.21C82.3043 9.732 81.9263 10.272 81.6923 10.938C81.1523 12.36 80.4143 13.692 79.6043 14.97C79.5323 15.06 79.4423 15.132 79.3343 15.258C79.1183 14.79 79.4603 14.52 79.5683 14.214C79.7123 13.854 79.9643 13.53 80.0903 13.17C80.1983 12.828 80.6123 12.648 80.5403 12.234C80.2883 12.792 79.6763 13.044 79.5143 13.71C79.3703 14.268 78.9563 14.754 78.6863 15.276C78.2903 15.996 77.8043 16.68 77.6603 17.508C77.7143 17.526 77.7683 17.526 77.8403 17.562C77.4983 18.282 77.1383 19.02 76.7783 19.74C76.6703 19.974 76.6163 20.19 76.6883 20.46L76.8863 20.262C77.3363 19.704 77.7863 19.164 78.2363 18.624C78.3983 18.444 78.5783 18.282 78.7043 18.084C79.2083 17.4 79.8383 16.878 80.6123 16.536C80.7383 16.482 80.8823 16.392 80.9723 16.284C81.1883 15.996 81.4763 15.816 81.7463 15.618C82.0883 15.384 82.3943 15.132 82.7183 14.898C82.9343 14.754 83.1323 14.61 83.3663 14.502C83.6543 14.34 83.9423 14.214 84.2483 14.07C84.4103 14.034 84.5903 14.052 84.7343 13.98C85.6883 13.548 86.6243 13.098 87.5783 12.648C87.7223 12.576 87.7583 12.45 87.6683 12.306C86.8583 12.72 86.0663 13.134 85.2563 13.53C84.9323 13.692 84.5903 13.818 84.2483 13.944C84.3743 13.854 84.5003 13.728 84.6443 13.638C84.9683 13.44 85.3103 13.26 85.6703 13.08L87.8123 11.982C87.8663 11.694 88.0283 11.388 87.9743 11.1C87.9023 10.614 88.0103 10.164 88.0823 9.696C88.2983 8.112 88.5323 6.528 88.7663 4.926L89.0003 3.234ZM86.8403 2.28C86.7323 2.46 86.6603 2.586 86.6063 2.694C86.6423 2.73 86.6423 2.748 86.6603 2.766C86.6603 2.766 86.6783 2.766 86.6963 2.748C86.7863 2.64 86.9303 2.55 86.8403 2.28ZM96.0383 13.008C96.2363 12.936 96.3083 12.792 96.2723 12.594C96.2003 12.738 96.1103 12.864 96.0383 13.008ZM84.9863 33.06C84.9863 32.934 85.0403 32.808 85.0763 32.61C84.9863 32.502 84.9143 32.394 84.8063 32.232L84.3563 34.608C84.5003 34.374 84.5363 34.068 84.6983 33.924C84.9863 33.672 84.9683 33.384 84.9863 33.06ZM83.0603 42.654C83.1683 42.492 83.2943 42.33 83.1863 42.06C83.1143 42.258 83.0783 42.384 83.0423 42.528C83.0243 42.582 83.0423 42.618 83.0603 42.654ZM87.6396 29.766C87.2976 30.036 87.0456 29.64 86.7216 29.64C86.5416 29.64 86.4156 29.406 86.4156 29.19C86.4336 28.848 86.4336 28.506 86.5056 28.164C86.5776 27.732 86.6856 27.3 86.8296 26.886C87.7836 23.952 89.0436 21.18 90.7536 18.624C91.0776 18.12 91.4016 17.616 91.5996 17.04C91.8696 16.374 92.2116 15.726 92.4456 15.042C92.7336 14.232 92.9676 13.404 93.2196 12.594C93.0576 12.162 93.3456 11.856 93.5256 11.514C93.6696 11.244 93.8856 11.172 94.1376 11.334C94.2456 11.406 94.3536 11.496 94.4616 11.586C94.3896 11.964 94.6596 12.324 94.4976 12.738C94.3536 13.098 94.2816 13.494 94.1736 13.872C94.0836 14.142 93.9756 14.43 93.9396 14.754C94.0296 14.7 94.1196 14.646 94.1916 14.574C94.6416 14.196 95.1456 13.872 95.6856 13.638C96.0276 13.476 96.3876 13.404 96.7836 13.422C97.2516 13.458 97.4136 13.566 97.7016 14.016C98.1336 14.016 98.3136 14.286 98.4576 14.664C98.6736 15.222 98.6376 15.744 98.4576 16.284C98.0616 17.346 97.4316 18.21 96.5316 18.876C95.7936 19.416 95.0016 19.83 94.1556 20.172C93.3636 20.496 92.6256 20.514 91.8696 20.028C91.4376 21.144 91.0236 22.224 90.5916 23.304C90.0336 24.69 89.4756 26.076 88.8996 27.444C88.6116 28.11 88.2696 28.74 87.9276 29.388C87.8556 29.532 87.7476 29.676 87.6396 29.766ZM95.3796 14.304L96.9456 13.944C96.3516 13.836 95.8836 13.962 95.3796 14.304ZM93.3096 18.786C94.2456 18.444 95.1276 17.958 95.9016 17.328C96.4236 16.914 96.8556 16.41 97.1436 15.816C97.2696 15.546 97.3236 15.258 97.0896 14.952C96.3336 14.988 95.7576 15.384 95.1996 15.816C94.2096 16.572 93.3816 17.526 92.6256 18.498C92.5716 18.57 92.5356 18.678 92.4996 18.768C92.7876 18.984 93.0576 18.876 93.3096 18.786ZM105.692 12.54C106.322 12.99 106.394 13.656 106.376 14.34C106.358 14.754 106.268 15.204 106.106 15.618C105.602 17.022 104.81 18.282 103.856 19.434C103.766 19.542 103.658 19.596 103.532 19.578C103.568 19.632 103.622 19.686 103.676 19.758C103.37 20.082 103.064 20.406 102.74 20.712C102.272 21.126 101.75 21.288 101.156 20.982C101.066 20.928 100.922 20.982 100.832 20.928C100.634 20.838 100.454 20.712 100.454 20.46C100.616 20.568 100.76 20.676 100.904 20.784L100.976 20.73C100.85 20.496 100.688 20.262 100.58 20.01C100.49 19.776 100.472 19.506 100.436 19.29C100.868 18.858 101.12 18.912 101.516 19.524C101.84 19.47 102.056 19.218 102.272 18.984C102.65 18.57 103.028 18.12 103.352 17.652C103.748 17.13 104.126 16.572 104.432 15.996C104.684 15.528 104.864 15.006 105.026 14.484C105.134 14.16 105.08 13.944 104.882 13.566C104.702 13.638 104.504 13.674 104.36 13.782C103.928 14.124 103.496 14.448 103.136 14.844C102.308 15.726 101.66 16.752 101.03 17.76C100.58 18.498 100.238 19.254 99.9862 20.064C99.5362 21.612 99.0142 23.124 98.5102 24.636C98.1502 25.734 97.7722 26.814 97.3762 27.894C97.2682 28.236 97.0882 28.542 96.9082 28.848C96.8362 28.974 96.7102 29.082 96.5842 29.136C96.3322 29.262 96.2782 29.19 96.0982 28.974C95.8102 28.668 95.9362 28.308 95.8642 27.948C95.8102 27.966 95.7562 28.002 95.6662 28.02C95.5222 27.768 95.5942 27.516 95.6302 27.246C95.8282 25.914 96.2422 24.618 96.7282 23.358C97.2502 21.99 97.7902 20.64 98.5282 19.38C98.7802 18.93 98.9962 18.444 99.2302 17.976C99.2662 17.886 99.3202 17.778 99.3382 17.688C99.6262 16.41 99.9142 15.15 100.184 13.872C100.274 13.422 100.274 12.936 100.31 12.432L100.76 12.054C101.156 12.198 101.084 12.63 101.354 12.9V12.216C101.696 12.306 101.66 12.648 101.786 12.774C101.678 13.278 101.57 13.728 101.48 14.196L101.552 14.25C102.164 13.602 102.686 12.828 103.64 12.63C103.658 12.522 103.658 12.414 103.658 12.324C104.54 11.73 105.062 12.09 105.692 12.54ZM102.254 14.322C102.524 14.142 102.668 13.962 102.758 13.746C102.56 13.872 102.362 13.98 102.254 14.322ZM99.2122 18.912L99.5902 18.03C99.5542 18.03 99.5362 18.012 99.5002 18.012C99.3742 18.3 99.2482 18.588 99.1402 18.876C99.1582 18.894 99.1942 18.894 99.2122 18.912ZM103.496 19.578C103.532 19.488 103.586 19.416 103.622 19.326C102.992 19.74 102.578 20.298 102.128 20.874C102.218 20.856 102.308 20.82 102.38 20.766C102.614 20.55 102.866 20.334 103.082 20.118C103.244 19.956 103.37 19.758 103.496 19.578ZM97.9522 22.062C98.1682 21.432 98.3302 20.802 98.5102 20.172C98.4922 20.154 98.4742 20.136 98.4742 20.118C98.3662 20.298 98.2762 20.46 98.1862 20.64C97.5022 21.99 96.9622 23.412 96.4762 24.87C96.2242 25.662 95.9542 26.454 95.8462 27.3C95.8462 27.372 95.8642 27.462 95.8822 27.552C95.9182 27.552 95.9542 27.552 95.9902 27.57L96.6382 25.716C96.8542 25.122 97.1422 24.546 97.2322 23.916C97.6462 23.358 97.7362 22.692 97.9522 22.062ZM109.701 19.938C109.251 19.938 108.855 19.74 108.441 19.596C108.477 19.542 108.513 19.506 108.549 19.434C108.189 19.182 107.991 18.768 107.541 18.624C107.433 18.588 107.361 18.444 107.271 18.354C107.145 18.21 107.019 18.048 106.911 17.904C106.857 17.832 106.839 17.742 106.821 17.67C106.803 17.508 106.803 17.364 106.785 17.202C106.443 17.184 106.047 17.472 105.741 17.04C105.759 16.914 105.759 16.752 105.777 16.572C105.903 16.482 106.029 16.392 106.155 16.284L106.137 16.302C106.515 16.32 106.911 16.338 107.253 16.122C107.361 16.068 107.487 16.014 107.559 15.924C107.901 15.546 108.297 15.222 108.729 14.952C109.107 14.682 109.467 14.394 109.737 14.016C109.845 13.854 109.971 13.728 110.115 13.62C110.421 13.386 110.727 13.17 111.033 12.972C111.411 12.72 111.807 12.504 112.203 12.288C112.455 12.144 112.707 12.144 112.959 12.288C113.121 12.378 113.283 12.45 113.427 12.522C113.355 12.576 113.175 12.414 113.193 12.72L113.427 12.522C113.949 12.792 114.057 13.134 113.823 13.656C113.679 13.98 113.463 14.232 113.211 14.466C112.509 15.114 111.699 15.618 110.871 16.104C110.061 16.572 109.179 16.86 108.351 17.22C108.261 17.256 108.153 17.292 108.081 17.328C108.099 18.282 108.639 18.714 110.007 18.822C109.953 18.768 109.935 18.714 109.881 18.66C110.259 18.588 110.619 18.552 110.961 18.444C111.303 18.354 111.645 18.192 112.023 18.066C112.167 18.156 112.347 18.282 112.527 18.426C112.869 18.696 112.869 19.146 112.509 19.344C111.843 19.74 111.123 19.938 110.349 19.938H109.701ZM109.269 15.636C109.953 15.384 110.745 14.88 111.069 14.538L111.015 14.322C110.349 14.7 109.773 15.132 109.269 15.636ZM107.667 17.742C107.685 17.598 107.703 17.508 107.721 17.418C107.559 17.49 107.613 17.598 107.667 17.742ZM116.888 21.234C116.834 21.198 116.798 21.144 116.762 21.09L116.582 21.216C116.258 21.126 116.276 20.874 116.276 20.622C116.294 19.848 116.114 19.092 115.718 18.426C115.448 17.958 115.106 17.544 114.782 17.094C114.638 16.896 114.476 16.716 114.314 16.536C113.864 15.996 113.846 15.42 114.188 14.808C114.206 14.79 114.242 14.754 114.242 14.736C114.35 14.052 114.89 13.746 115.412 13.512C116.186 13.17 117.014 12.918 117.806 12.63C117.842 12.612 117.896 12.63 117.986 12.63C117.608 13.026 117.104 13.152 116.726 13.476C117.158 13.332 117.608 13.188 118.04 13.026C118.112 13.008 118.148 12.954 118.22 12.936C118.94 12.792 119.246 12.234 119.498 11.622L119.696 11.406C119.678 11.388 119.66 11.388 119.66 11.37C119.606 11.388 119.552 11.424 119.498 11.442C119.606 11.19 119.696 10.92 119.822 10.686C120.704 9.048 121.586 7.41 122.486 5.772C122.576 5.61 122.684 5.484 122.81 5.286C122.918 5.448 123.008 5.556 123.098 5.7C123.188 5.61 123.278 5.502 123.368 5.394C123.656 5.484 123.89 5.664 123.872 5.988C123.854 6.222 123.764 6.474 123.656 6.672C123.314 7.266 122.9 7.842 122.576 8.436C122.018 9.444 121.514 10.488 120.974 11.514C120.902 11.658 120.848 11.82 120.758 12C121.064 12.036 121.334 12.072 121.604 12.126C122.432 12.234 122.972 12.756 123.44 13.404C123.476 13.458 123.494 13.548 123.494 13.62C123.494 13.71 123.458 13.8 123.458 13.89C123.458 13.98 123.494 14.052 123.53 14.142C123.332 14.34 123.134 14.394 122.918 14.196C122.828 14.124 122.756 14.088 122.63 14.124C122.54 14.142 122.396 14.016 122.324 13.908C122.144 13.62 121.892 13.53 121.568 13.566C121.046 13.602 120.506 13.656 119.93 13.71C119.588 14.574 119.264 15.402 118.958 16.23C118.436 17.688 117.932 19.146 117.68 20.658C117.662 20.802 117.608 20.946 117.554 21.09C117.41 21.432 117.176 21.486 116.888 21.234ZM117.014 17.886L118.202 14.25C116.996 14.448 115.682 15.096 115.358 15.654C115.898 16.392 116.456 17.13 117.014 17.886ZM114.638 15.996C114.692 15.816 114.764 15.618 114.566 15.42C114.332 15.654 114.512 15.816 114.638 15.996ZM126.312 12.522C126.132 12.666 125.97 12.54 125.808 12.27C125.718 12.27 125.628 12.324 125.592 12.288C125.52 12.27 125.448 12.162 125.466 12.09C125.484 11.748 125.574 11.406 125.862 11.172C126.132 11.208 126.258 11.37 126.33 11.658C126.438 11.46 126.564 11.388 126.762 11.478C126.798 11.64 126.888 11.802 126.816 11.982C126.69 12.216 126.492 12.378 126.312 12.522ZM124.62 20.658C123.954 21.036 123.234 20.82 122.982 20.1C122.784 19.578 122.838 19.038 122.874 18.498C122.982 17.256 123.522 16.158 124.116 15.078C124.242 14.844 124.332 14.61 124.458 14.376C124.584 14.106 124.764 13.836 124.998 13.62C125.07 13.692 125.34 13.764 125.43 13.836C125.25 13.998 125.07 14.124 124.836 14.322L125.034 14.448C125.106 14.376 125.178 14.304 125.232 14.232C125.304 14.124 125.466 14.268 125.502 14.124C125.556 14.016 125.646 13.962 125.754 14.016C125.862 14.34 125.844 14.43 125.628 14.628C125.538 14.718 125.466 14.808 125.394 14.934C125.268 15.132 125.16 15.366 125.016 15.582L124.944 15.384C124.692 15.906 124.44 16.356 124.242 16.86C124.17 17.022 124.206 17.238 124.206 17.436C124.206 17.508 124.224 17.598 124.206 17.652C124.062 17.976 124.062 18.318 124.026 18.66C123.972 19.092 124.026 19.524 124.152 19.956C124.152 20.01 124.188 20.064 124.224 20.118C124.476 20.1 124.638 20.01 124.746 19.812C124.692 19.776 124.638 19.776 124.638 19.776L125.178 19.308C125.304 19.434 125.016 19.488 124.998 19.668C125.196 19.722 125.43 19.722 125.682 19.704C125.556 19.848 125.484 19.992 125.394 20.082C125.178 20.262 124.944 20.406 124.746 20.568C124.692 20.604 124.656 20.64 124.62 20.658ZM130.423 21.234C130.369 21.198 130.333 21.144 130.297 21.09L130.117 21.216C129.793 21.126 129.811 20.874 129.811 20.622C129.829 19.848 129.649 19.092 129.253 18.426C128.983 17.958 128.641 17.544 128.317 17.094C128.173 16.896 128.011 16.716 127.849 16.536C127.399 15.996 127.381 15.42 127.723 14.808C127.741 14.79 127.777 14.754 127.777 14.736C127.885 14.052 128.425 13.746 128.947 13.512C129.721 13.17 130.549 12.918 131.341 12.63C131.377 12.612 131.431 12.63 131.521 12.63C131.143 13.026 130.639 13.152 130.261 13.476C130.693 13.332 131.143 13.188 131.575 13.026C131.647 13.008 131.683 12.954 131.755 12.936C132.475 12.792 132.781 12.234 133.033 11.622L133.231 11.406C133.213 11.388 133.195 11.388 133.195 11.37C133.141 11.388 133.087 11.424 133.033 11.442C133.141 11.19 133.231 10.92 133.357 10.686C134.239 9.048 135.121 7.41 136.021 5.772C136.111 5.61 136.219 5.484 136.345 5.286C136.453 5.448 136.543 5.556 136.633 5.7C136.723 5.61 136.813 5.502 136.903 5.394C137.191 5.484 137.425 5.664 137.407 5.988C137.389 6.222 137.299 6.474 137.191 6.672C136.849 7.266 136.435 7.842 136.111 8.436C135.553 9.444 135.049 10.488 134.509 11.514C134.437 11.658 134.383 11.82 134.293 12C134.599 12.036 134.869 12.072 135.139 12.126C135.967 12.234 136.507 12.756 136.975 13.404C137.011 13.458 137.029 13.548 137.029 13.62C137.029 13.71 136.993 13.8 136.993 13.89C136.993 13.98 137.029 14.052 137.065 14.142C136.867 14.34 136.669 14.394 136.453 14.196C136.363 14.124 136.291 14.088 136.165 14.124C136.075 14.142 135.931 14.016 135.859 13.908C135.679 13.62 135.427 13.53 135.103 13.566C134.581 13.602 134.041 13.656 133.465 13.71C133.123 14.574 132.799 15.402 132.493 16.23C131.971 17.688 131.467 19.146 131.215 20.658C131.197 20.802 131.143 20.946 131.089 21.09C130.945 21.432 130.711 21.486 130.423 21.234ZM130.549 17.886L131.737 14.25C130.531 14.448 129.217 15.096 128.893 15.654C129.433 16.392 129.991 17.13 130.549 17.886ZM128.173 15.996C128.227 15.816 128.299 15.618 128.101 15.42C127.867 15.654 128.047 15.816 128.173 15.996ZM137.831 20.046C136.733 20.37 136.013 19.488 135.941 18.768C135.923 18.498 135.941 18.21 135.995 17.958C136.211 16.95 136.589 16.014 137.255 15.222C137.579 14.844 137.849 14.448 138.191 14.088C138.407 13.872 138.695 13.674 138.965 13.53C139.181 13.404 139.325 13.26 139.433 13.044C139.667 12.522 140.171 12.36 140.657 12.306C140.963 12.252 141.143 12.522 141.233 12.72C141.449 12.846 141.629 12.9 141.701 13.008C141.827 13.224 141.989 13.494 141.863 13.746C141.719 14.034 141.791 14.268 141.845 14.556C142.025 15.24 142.061 15.942 141.989 16.644C141.935 17.22 141.683 17.706 141.395 18.192C141.017 18.84 140.441 19.398 139.775 19.776C139.325 19.668 138.893 19.632 138.461 19.812C138.263 19.902 138.047 19.992 137.831 20.046ZM136.751 17.292C137.039 16.788 137.489 16.446 137.939 16.104C138.245 15.87 138.533 15.636 138.749 15.294C138.893 15.078 139.109 14.916 139.307 14.736C139.505 14.556 139.721 14.376 139.919 14.178C140.081 14.016 140.225 13.818 140.405 13.584L140.261 13.386C139.991 13.566 139.739 13.728 139.487 13.908C138.839 14.34 138.407 15.006 137.795 15.51C137.255 15.96 137.039 16.662 136.751 17.292ZM137.975 19.344C138.209 19.29 138.425 19.2 138.677 19.164C139.145 19.074 139.505 18.822 139.793 18.444C140.117 18.012 140.567 17.688 140.783 17.184C140.801 17.148 140.909 17.166 140.999 17.166C141.323 16.734 141.233 16.194 141.197 15.6C141.053 16.014 140.927 16.374 140.819 16.734C141.053 15.816 140.999 14.934 140.657 13.962L140.585 14.304C140.549 14.25 140.513 14.196 140.495 14.142H140.405C139.757 14.556 139.181 15.114 138.623 15.672C138.191 16.086 137.903 16.59 137.597 17.094C137.273 17.598 137.093 18.174 137.237 18.822C137.543 18.876 137.831 18.912 138.119 18.966C138.119 18.984 138.119 19.002 138.101 19.02H137.309C137.471 19.326 137.669 19.434 137.975 19.344ZM143.863 17.166C143.521 17.184 143.341 16.95 143.089 16.788C143.251 16.428 143.395 16.104 143.539 15.744C144.187 14.052 144.817 12.36 145.483 10.668C146.365 8.49 147.157 6.258 148.219 4.134C148.345 3.9 148.435 3.63 148.543 3.378L148.831 2.856C149.119 3.036 149.407 3.198 149.749 3.396L149.929 4.17C149.389 4.782 149.083 5.466 148.795 6.132C148.291 7.284 147.823 8.454 147.355 9.606C146.707 11.226 146.077 12.828 145.429 14.43C145.159 15.096 144.871 15.744 144.583 16.392C144.493 16.392 144.439 16.374 144.367 16.374C144.205 16.626 144.025 16.896 143.863 17.166ZM142.279 21.756L142.009 21.576L142.297 21.126C142.207 20.766 142.171 20.388 142.423 20.118C142.783 19.812 142.999 20.172 143.269 20.226C143.557 20.262 143.773 20.46 143.917 20.82L143.827 21.27C143.593 21.45 143.377 21.612 143.161 21.756C142.909 21.936 142.801 21.9 142.513 21.594C142.441 21.648 142.369 21.684 142.279 21.756Z" fill="#F3F0F0"/>
</svg>
