<svg width="128" height="24" viewBox="0 0 128 24" fill="none" xmlns="http://www.w3.org/2000/svg">
<path d="M17.9184 14.3201C17.6594 14.5711 17.5404 14.9341 17.5994 15.2901L18.4884 20.2101C18.5634 20.6271 18.3874 21.0491 18.0384 21.2901C17.6964 21.5401 17.2414 21.5701 16.8684 21.3701L12.4394 19.0601C12.2854 18.9781 12.1144 18.9341 11.9394 18.9291H11.6684C11.5744 18.9431 11.4824 18.9731 11.3984 19.0191L6.96839 21.3401C6.74939 21.4501 6.50139 21.4891 6.25839 21.4501C5.66639 21.3381 5.27139 20.7741 5.36839 20.1791L6.25839 15.2591C6.31739 14.9001 6.19839 14.5351 5.93939 14.2801L2.32839 10.7801C2.02639 10.4871 1.92139 10.0471 2.05939 9.65012C2.19339 9.25412 2.53539 8.96512 2.94839 8.90012L7.91839 8.17912C8.29639 8.14012 8.62839 7.91012 8.79839 7.57012L10.9884 3.08012C11.0404 2.98012 11.1074 2.88812 11.1884 2.81012L11.2784 2.74012C11.3254 2.68812 11.3794 2.64512 11.4394 2.61012L11.5484 2.57012L11.7184 2.50012H12.1394C12.5154 2.53912 12.8464 2.76412 13.0194 3.10012L15.2384 7.57012C15.3984 7.89712 15.7094 8.12412 16.0684 8.17912L21.0384 8.90012C21.4584 8.96012 21.8094 9.25012 21.9484 9.65012C22.0794 10.0511 21.9664 10.4911 21.6584 10.7801L17.9184 14.3201Z" fill="#FFE601"/>
<path d="M43.9184 14.3201C43.6594 14.5711 43.5404 14.9341 43.5994 15.2901L44.4884 20.2101C44.5634 20.6271 44.3874 21.0491 44.0384 21.2901C43.6964 21.5401 43.2414 21.5701 42.8684 21.3701L38.4394 19.0601C38.2854 18.9781 38.1144 18.9341 37.9394 18.9291H37.6684C37.5744 18.9431 37.4824 18.9731 37.3984 19.0191L32.9684 21.3401C32.7494 21.4501 32.5014 21.4891 32.2584 21.4501C31.6664 21.3381 31.2714 20.7741 31.3684 20.1791L32.2584 15.2591C32.3174 14.9001 32.1984 14.5351 31.9394 14.2801L28.3284 10.7801C28.0264 10.4871 27.9214 10.0471 28.0594 9.65012C28.1934 9.25412 28.5354 8.96512 28.9484 8.90012L33.9184 8.17912C34.2964 8.14012 34.6284 7.91012 34.7984 7.57012L36.9884 3.08012C37.0404 2.98012 37.1074 2.88812 37.1884 2.81012L37.2784 2.74012C37.3254 2.68812 37.3794 2.64512 37.4394 2.61012L37.5484 2.57012L37.7184 2.50012H38.1394C38.5154 2.53912 38.8464 2.76412 39.0194 3.10012L41.2384 7.57012C41.3984 7.89712 41.7094 8.12412 42.0684 8.17912L47.0384 8.90012C47.4584 8.96012 47.8094 9.25012 47.9484 9.65012C48.0794 10.0511 47.9664 10.4911 47.6584 10.7801L43.9184 14.3201Z" fill="#FFE601"/>
<path d="M69.9184 14.3201C69.6594 14.5711 69.5404 14.9341 69.5994 15.2901L70.4884 20.2101C70.5634 20.6271 70.3874 21.0491 70.0384 21.2901C69.6964 21.5401 69.2414 21.5701 68.8684 21.3701L64.4394 19.0601C64.2854 18.9781 64.1144 18.9341 63.9394 18.9291H63.6684C63.5744 18.9431 63.4824 18.9731 63.3984 19.0191L58.9684 21.3401C58.7494 21.4501 58.5014 21.4891 58.2584 21.4501C57.6664 21.3381 57.2714 20.7741 57.3684 20.1791L58.2584 15.2591C58.3174 14.9001 58.1984 14.5351 57.9394 14.2801L54.3284 10.7801C54.0264 10.4871 53.9214 10.0471 54.0594 9.65012C54.1934 9.25412 54.5354 8.96512 54.9484 8.90012L59.9184 8.17912C60.2964 8.14012 60.6284 7.91012 60.7984 7.57012L62.9884 3.08012C63.0404 2.98012 63.1074 2.88812 63.1884 2.81012L63.2784 2.74012C63.3254 2.68812 63.3794 2.64512 63.4394 2.61012L63.5484 2.57012L63.7184 2.50012H64.1394C64.5154 2.53912 64.8464 2.76412 65.0194 3.10012L67.2384 7.57012C67.3984 7.89712 67.7094 8.12412 68.0684 8.17912L73.0384 8.90012C73.4584 8.96012 73.8094 9.25012 73.9484 9.65012C74.0794 10.0511 73.9664 10.4911 73.6584 10.7801L69.9184 14.3201Z" fill="#FFE601"/>
<path d="M95.9184 14.3201C95.6594 14.5711 95.5404 14.9341 95.5994 15.2901L96.4884 20.2101C96.5634 20.6271 96.3874 21.0491 96.0384 21.2901C95.6964 21.5401 95.2414 21.5701 94.8684 21.3701L90.4394 19.0601C90.2854 18.9781 90.1144 18.9341 89.9394 18.9291H89.6684C89.5744 18.9431 89.4824 18.9731 89.3984 19.0191L84.9684 21.3401C84.7494 21.4501 84.5014 21.4891 84.2584 21.4501C83.6664 21.3381 83.2714 20.7741 83.3684 20.1791L84.2584 15.2591C84.3174 14.9001 84.1984 14.5351 83.9394 14.2801L80.3284 10.7801C80.0264 10.4871 79.9214 10.0471 80.0594 9.65012C80.1934 9.25412 80.5354 8.96512 80.9484 8.90012L85.9184 8.17912C86.2964 8.14012 86.6284 7.91012 86.7984 7.57012L88.9884 3.08012C89.0404 2.98012 89.1074 2.88812 89.1884 2.81012L89.2784 2.74012C89.3254 2.68812 89.3794 2.64512 89.4394 2.61012L89.5484 2.57012L89.7184 2.50012H90.1394C90.5154 2.53912 90.8464 2.76412 91.0194 3.10012L93.2384 7.57012C93.3984 7.89712 93.7094 8.12412 94.0684 8.17912L99.0384 8.90012C99.4584 8.96012 99.8094 9.25012 99.9484 9.65012C100.079 10.0511 99.9664 10.4911 99.6584 10.7801L95.9184 14.3201Z" fill="#FFE601"/>
<path d="M121.918 14.3201C121.659 14.5711 121.54 14.9341 121.599 15.2901L122.488 20.2101C122.563 20.6271 122.387 21.0491 122.038 21.2901C121.696 21.5401 121.241 21.5701 120.868 21.3701L116.439 19.0601C116.285 18.9781 116.114 18.9341 115.939 18.9291H115.668C115.574 18.9431 115.482 18.9731 115.398 19.0191L110.968 21.3401C110.749 21.4501 110.501 21.4891 110.258 21.4501C109.666 21.3381 109.271 20.7741 109.368 20.1791L110.258 15.2591C110.317 14.9001 110.198 14.5351 109.939 14.2801L106.328 10.7801C106.026 10.4871 105.921 10.0471 106.059 9.65012C106.193 9.25412 106.535 8.96512 106.948 8.90012L111.918 8.17912C112.296 8.14012 112.628 7.91012 112.798 7.57012L114.988 3.08012C115.04 2.98012 115.107 2.88812 115.188 2.81012L115.278 2.74012C115.325 2.68812 115.379 2.64512 115.439 2.61012L115.548 2.57012L115.718 2.50012H116.139C116.515 2.53912 116.846 2.76412 117.019 3.10012L119.238 7.57012C119.398 7.89712 119.709 8.12412 120.068 8.17912L125.038 8.90012C125.458 8.96012 125.809 9.25012 125.948 9.65012C126.079 10.0511 125.966 10.4911 125.658 10.7801L121.918 14.3201Z" fill="#FFE601"/>
</svg>
