<svg width="420" height="105" viewBox="0 0 420 105" fill="none" xmlns="http://www.w3.org/2000/svg">
<path d="M158.064 51.3201C154.638 51.3201 151.633 50.6276 149.05 49.2427C146.467 47.8578 144.454 45.9166 143.012 43.419C141.57 40.9194 140.849 38.0004 140.85 34.662C140.85 31.3236 141.571 28.4043 143.012 25.9042C144.454 23.4072 146.466 21.4662 149.05 20.0813C151.633 18.6964 154.638 18.0039 158.064 18.0039C161.49 18.0039 164.494 18.6964 167.079 20.0813C169.663 21.4662 171.675 23.4072 173.117 25.9042C174.558 28.4043 175.279 31.3236 175.279 34.662C175.28 38.0004 174.559 40.9197 173.117 43.4198C171.674 45.9184 169.662 47.8596 167.079 49.2435C164.496 50.6274 161.491 51.3196 158.064 51.3201ZM158.064 50.6347C159.503 50.6474 160.916 50.246 162.133 49.4782C163.36 48.7078 164.416 47.6228 165.302 46.2233C166.158 44.8248 166.821 43.1405 167.293 41.1703C167.765 39.2001 167.999 37.0164 167.997 34.619C167.997 32.2195 167.762 30.0287 167.293 28.0465C166.824 26.0643 166.16 24.3727 165.302 22.9716C164.415 21.5731 163.359 20.4884 162.133 19.7174C160.91 18.9618 159.501 18.5615 158.064 18.5615C156.627 18.5615 155.218 18.9618 153.995 19.7174C152.767 20.4889 151.724 21.5736 150.866 22.9716C149.979 24.3711 149.301 26.0628 148.831 28.0465C148.362 30.0302 148.127 32.2211 148.127 34.619C148.127 37.0184 148.362 39.2022 148.831 41.1703C149.301 43.1384 149.979 44.8227 150.866 46.2233C151.722 47.6233 152.765 48.7083 153.995 49.4782C155.213 50.2462 156.625 50.6477 158.064 50.6347Z" fill="#D3B485"/>
<path d="M285.965 51.3201C282.539 51.3201 279.534 50.6276 276.95 49.2427C274.366 47.8578 272.354 45.9166 270.913 43.419C269.47 40.9194 268.749 38.0004 268.75 34.662C268.751 31.3236 269.472 28.4043 270.913 25.9042C272.353 23.4072 274.365 21.4662 276.95 20.0813C279.535 18.6964 282.54 18.0039 285.965 18.0039C289.39 18.0039 292.395 18.6964 294.979 20.0813C297.563 21.4662 299.576 23.4072 301.017 25.9042C302.458 28.4043 303.179 31.3236 303.18 34.662C303.18 38.0004 302.459 40.9197 301.017 43.4198C299.575 45.9184 297.562 47.8596 294.979 49.2435C292.396 50.6274 289.391 51.3196 285.965 51.3201ZM285.965 50.6347C287.404 50.6477 288.816 50.2462 290.033 49.4782C291.261 48.7078 292.317 47.6228 293.202 46.2233C294.059 44.8248 294.723 43.1405 295.194 41.1703C295.666 39.2001 295.9 37.0164 295.898 34.619C295.898 32.2195 295.664 30.0287 295.194 28.0465C294.725 26.0643 294.061 24.3727 293.202 22.9716C292.315 21.5731 291.259 20.4884 290.033 19.7174C288.811 18.9618 287.402 18.5615 285.965 18.5615C284.527 18.5615 283.118 18.9618 281.896 19.7174C280.668 20.4889 279.627 21.5736 278.77 22.9716C277.883 24.3711 277.205 26.0628 276.736 28.0465C276.266 30.0302 276.031 32.2211 276.031 34.619C276.031 37.0184 276.266 39.2022 276.736 41.1703C277.205 43.1384 277.883 44.8227 278.77 46.2233C279.627 47.6233 280.668 48.7083 281.896 49.4782C283.113 50.2462 284.525 50.6476 285.965 50.6347Z" fill="#D3B485"/>
<path d="M314.829 51.3201C311.403 51.3201 308.399 50.6276 305.815 49.2427C303.231 47.8578 301.219 45.9166 299.778 43.419C298.336 40.9194 297.615 38.0004 297.615 34.662C297.615 31.3236 298.336 28.4043 299.778 25.9042C301.219 23.4072 303.231 21.4662 305.815 20.0813C308.399 18.6964 311.403 18.0039 314.829 18.0039C318.255 18.0039 321.26 18.6964 323.844 20.0813C326.428 21.4662 328.441 23.4072 329.882 25.9042C331.323 28.4043 332.044 31.3236 332.045 34.662C332.045 38.0004 331.324 40.9197 329.882 43.4198C328.44 45.9184 326.427 47.8596 323.844 49.2435C321.261 50.6274 318.256 51.3196 314.829 51.3201ZM314.829 50.6347C316.268 50.6474 317.681 50.246 318.898 49.4782C320.125 48.7078 321.181 47.6228 322.067 46.2233C322.923 44.8248 323.587 43.1405 324.058 41.1703C324.53 39.2001 324.765 37.0164 324.762 34.619C324.762 32.2195 324.528 30.0287 324.058 28.0465C323.589 26.0643 322.925 24.3727 322.067 22.9716C321.18 21.5731 320.124 20.4884 318.898 19.7174C317.676 18.9618 316.267 18.5615 314.829 18.5615C313.392 18.5615 311.983 18.9618 310.761 19.7174C309.533 20.4889 308.49 21.5736 307.631 22.9716C306.744 24.3711 306.066 26.0628 305.597 28.0465C305.127 30.0302 304.892 32.2211 304.892 34.619C304.892 37.0184 305.127 39.2022 305.597 41.1703C306.066 43.1384 306.744 44.8227 307.631 46.2233C308.487 47.6233 309.531 48.7083 310.761 49.4782C311.978 50.2462 313.39 50.6477 314.829 50.6347Z" fill="#D3B485"/>
<path d="M78.2743 50.6128C76.7329 50.6128 75.3339 49.0568 74.0773 45.9448L62.9432 18.2817H62.5583L52.482 42.9347C52.2104 43.4126 52.0016 43.9236 51.8608 44.455C51.7266 44.9695 51.659 45.4991 51.6597 46.0308C51.6591 46.2387 51.6735 46.4463 51.7027 46.6521C51.7987 47.4393 52.0806 48.1924 52.5251 48.8492C53.0154 49.5767 53.695 50.1568 54.4905 50.5267C54.7438 50.65 55.0074 50.7506 55.2785 50.8272C56.3202 51.1182 57.423 51.1093 58.4599 50.8014C58.659 50.7452 58.8549 50.678 59.0467 50.6003C60.1695 50.1543 61.1921 49.3718 61.7344 48.2921C62.1623 47.4314 62.2609 46.4549 62.2954 45.4996C62.2882 45.4977 62.2806 45.4977 62.2735 45.4996C61.563 45.4437 60.8507 45.3851 60.1366 45.3235C60.2391 45.9792 60.3338 46.6341 60.308 47.2937C60.2822 47.9533 60.1241 48.6238 59.7556 49.1715C59.2806 49.8695 58.5138 50.2896 57.7001 50.4524C56.0687 50.7904 54.3082 50.2466 53.2207 48.9532C52.5414 48.1392 52.166 47.1145 52.1589 46.0543V46.0371C52.1569 45.7224 52.1831 45.4082 52.2371 45.0982C52.2643 44.9248 52.3003 44.753 52.3451 44.5833C52.5112 43.9531 52.7818 43.3551 53.1455 42.8142C53.1541 42.8017 53.1627 42.7931 53.1714 42.7806C53.6236 42.1207 54.209 41.5626 54.8897 41.1424C55.5705 40.7221 56.3316 40.4488 57.1242 40.3402L57.377 40.3057C57.5522 40.3057 57.7283 40.2799 57.8988 40.2799H64.9095L65.1959 41.0037L67.2685 46.1591C67.8428 47.5589 67.907 48.6473 67.461 49.4352C67.015 50.2231 66.1551 50.6128 64.8711 50.6128H64.699V51.0416H78.4003V50.6128H78.2743ZM57.9075 39.787C57.6107 39.7852 57.3143 39.8067 57.021 39.8511C55.7964 40.0234 54.6517 40.5589 53.7347 41.3886L53.8912 41.0037L54.6063 39.2221H54.5977L55.3857 37.2863L59.6108 26.8885L63.8469 37.5946L64.7162 39.7854L57.9075 39.787Z" fill="#D3B485"/>
<path d="M256.539 19.1595C262.479 19.1595 265.876 21.8571 266.731 27.2523H267.116L265.832 18.6024H242.921L242.964 19.0312C243.992 19.0312 244.822 19.3442 245.448 19.9701C246.073 20.5961 246.39 21.4286 246.39 22.4559V46.868C246.39 47.8961 246.075 48.7239 245.447 49.3514C244.821 49.9774 243.991 50.2904 242.963 50.2904H242.835L242.749 50.7184H256.453L256.409 50.2904C255.442 50.2904 254.629 50.0121 253.969 49.4555C253.309 48.8989 252.981 48.1493 252.984 47.2068V31.2192H259.035C259.206 31.2192 259.382 31.245 259.557 31.245L259.81 31.2795C260.603 31.3888 261.364 31.6627 262.045 32.0835C262.726 32.5043 263.311 33.0627 263.764 33.723C263.772 33.7363 263.781 33.7442 263.789 33.7575C264.153 34.298 264.424 34.8957 264.59 35.5258C264.634 35.6936 264.67 35.8636 264.697 36.0351C264.751 36.3451 264.777 36.6594 264.775 36.9741V36.9913C264.767 38.0513 264.392 39.0758 263.714 39.8902C262.625 41.1836 260.865 41.7281 259.234 41.3893C258.42 41.2266 257.654 40.8064 257.179 40.1093C256.81 39.5655 256.651 38.8926 256.626 38.2314C256.601 37.5703 256.694 36.9169 256.797 36.2613C256.082 36.3215 255.371 36.3817 254.66 36.4373C254.653 36.4368 254.645 36.4381 254.639 36.4412C254.673 37.3966 254.772 38.377 255.2 39.2337C255.74 40.3127 256.765 41.0967 257.885 41.5419C258.077 41.6198 258.273 41.6869 258.472 41.743C259.509 42.051 260.612 42.0599 261.653 41.7688C261.924 41.6925 262.188 41.5922 262.441 41.4692C263.237 41.0984 263.916 40.5183 264.407 39.7908C264.851 39.1341 265.133 38.381 265.229 37.5937C265.259 37.388 265.273 37.1804 265.272 36.9725C265.273 36.4408 265.205 35.9112 265.071 35.3967C264.815 34.419 264.326 33.5181 263.645 32.7716C262.667 31.6999 261.347 31.0008 259.911 30.7936C259.617 30.7485 259.321 30.7268 259.024 30.7286H252.982V19.1595H256.539Z" fill="#D3B485"/>
<path d="M371.58 25.84C369.924 23.4405 367.597 21.6346 364.599 20.4224C361.6 19.2101 358.089 18.6035 354.065 18.6024H337.912C337.615 18.5999 337.319 18.6214 337.026 18.6666C335.538 18.8795 334.177 19.6218 333.192 20.7571C332.207 21.8925 331.665 23.3449 331.664 24.8478C331.666 25.8519 331.968 26.8326 332.53 27.6646C333.844 29.6113 336.266 30.2584 338.466 29.6207C338.664 29.5628 338.857 29.4955 339.051 29.4188C340.172 28.9713 341.197 28.1904 341.737 27.1114C342.165 26.2508 342.265 25.2735 342.297 24.3166H342.276L340.14 24.1413C340.241 24.7939 340.338 25.4519 340.31 26.1115C340.283 26.7711 340.126 27.4416 339.756 27.9893C339.286 28.6849 338.514 29.1051 337.703 29.271C336.07 29.6059 334.31 29.0628 333.223 27.7695C332.544 26.955 332.169 25.9306 332.161 24.8705V24.8525C332.161 24.3642 332.225 23.8779 332.35 23.4058C332.637 22.3051 333.245 21.3143 334.096 20.5589C334.946 19.8035 336.002 19.3173 337.129 19.1619L337.382 19.1274C337.557 19.1274 337.732 19.1016 337.903 19.1016H341.033C341.666 19.2023 342.257 19.4848 342.733 19.9146C343.375 20.5009 343.696 21.2791 343.696 22.2494V47.1309C343.696 48.1011 343.383 48.8718 342.757 49.443C342.131 50.0142 341.289 50.3011 340.23 50.3037V50.7317H354.062C358.059 50.7317 361.556 50.125 364.554 48.9117C367.552 47.6984 369.886 45.9072 371.555 43.5379C373.225 41.1687 374.059 38.2281 374.059 34.716C374.059 31.2038 373.233 28.2452 371.58 25.84ZM365.199 43.1835C364.143 45.4959 362.665 47.2373 360.767 48.4078C358.869 49.5784 356.635 50.1636 354.065 50.1636H353.294C352.18 50.1636 351.402 49.8853 350.96 49.3288C350.518 48.7722 350.297 48.037 350.297 47.1231V19.2026H354.066C356.635 19.2026 358.869 19.7805 360.768 20.9364C362.667 22.0924 364.144 23.8124 365.2 26.0966C366.256 28.3813 366.784 31.2221 366.784 34.6189C366.784 38.0158 366.255 40.8706 365.196 43.1835H365.199Z" fill="#D3B485"/>
<path d="M50.6801 22.7564C49.7521 21.4716 48.4673 20.4654 46.8258 19.7378C45.1842 19.0101 43.2644 18.6316 41.0663 18.6024H24.4465C24.1497 18.5999 23.8533 18.6213 23.56 18.6666C22.0722 18.8795 20.7111 19.6218 19.7263 20.7571C18.7416 21.8925 18.1992 23.3449 18.1987 24.8479C18.1993 25.8515 18.4989 26.8321 19.0594 27.6646C20.3747 29.6113 22.7956 30.2584 24.9965 29.6207C25.1948 29.5628 25.3896 29.4955 25.581 29.4189C26.7015 28.9713 27.7273 28.1904 28.2679 27.1114C28.6967 26.2508 28.7953 25.2735 28.8274 24.3166H28.8062L26.671 24.1413C26.7711 24.7939 26.8681 25.4519 26.8408 26.1115C26.8134 26.7711 26.6561 27.4416 26.2852 27.9893C25.8158 28.6849 25.0443 29.1051 24.2337 29.271C22.6007 29.6059 20.8402 29.0628 19.7534 27.7695C19.0746 26.9552 18.6993 25.9306 18.6917 24.8705V24.8526C18.6919 24.3642 18.755 23.878 18.8795 23.4058C19.0455 22.7757 19.3164 22.1779 19.6807 21.6375C20.1327 20.9686 20.7205 20.4025 21.4059 19.9759C22.0913 19.5494 22.8588 19.272 23.6586 19.1619L23.9121 19.1275C24.0874 19.1275 24.2626 19.1016 24.434 19.1016H27.5183C28.1698 19.2066 28.7719 19.5134 29.2397 19.9787C29.8657 20.6078 30.1786 21.4359 30.1786 22.463V46.868C30.1786 47.8961 29.8657 48.7242 29.2397 49.3522C28.6138 49.9803 27.7859 50.2933 26.7563 50.2912V50.7192H40.2956V50.2912H40.2103C39.1821 50.2912 38.3541 49.9782 37.726 49.3522C37.098 48.7263 36.785 47.8982 36.7871 46.868V35.9921H40.7275C43.0388 35.9921 45.0442 35.627 46.7436 34.8967C48.4431 34.1664 49.7563 33.1529 50.6832 31.8562C51.6106 30.5583 52.0746 29.0383 52.0751 27.2961C52.0757 25.5539 51.6106 24.0406 50.6801 22.7564ZM44.599 31.4931C44.0998 32.7205 43.4005 33.6839 42.5012 34.3834C41.602 35.0829 40.5384 35.4324 39.3105 35.4319H36.784V19.1572H39.2682C40.494 19.1572 41.5634 19.5069 42.4762 20.2064C43.389 20.9059 44.0966 21.8702 44.599 23.0991C45.0982 24.3265 45.3483 25.7255 45.3493 27.2961C45.3504 28.8667 45.1002 30.2657 44.599 31.4931Z" fill="#D3B485"/>
<path d="M110.188 49.7138C109.605 49.2994 109.116 48.766 108.754 48.1489L103.355 38.8997C102.729 37.8434 102.08 36.9582 101.406 36.2441C100.733 35.53 100.155 35.1017 99.6723 34.9593C101.87 34.6464 103.611 33.7471 104.897 32.2615C106.182 30.7759 106.824 28.9917 106.824 26.9088C106.824 25.2532 106.403 23.8044 105.56 22.5624C104.718 21.3204 103.533 20.3499 102.006 19.6509C100.479 18.9514 98.687 18.6014 96.6318 18.6009H80.4345C80.1378 18.5984 79.8413 18.6198 79.548 18.6651C78.0306 18.8822 76.6461 19.6498 75.6579 20.8216C74.6697 21.9935 74.147 23.4877 74.1891 25.02C74.2026 25.5709 74.3117 26.1152 74.5115 26.6287C75.5866 29.3673 78.4354 30.3578 80.9885 29.6169C81.1862 29.559 81.381 29.4917 81.573 29.415C82.6942 28.9674 83.7192 28.1866 84.2591 27.1076C84.6879 26.2469 84.7873 25.2696 84.8185 24.3127H84.7982L82.6629 24.1374C82.7631 24.79 82.8593 25.448 82.8327 26.1076C82.8061 26.7672 82.6481 27.4378 82.278 27.9855C81.8085 28.6811 81.0355 29.1012 80.2256 29.2671C78.5927 29.602 76.8314 29.059 75.7454 27.7656C75.0662 26.9515 74.6909 25.9268 74.6836 24.8667V24.8487C74.6837 24.3603 74.7471 23.874 74.8722 23.402C75.1594 22.3007 75.7669 21.3093 76.6178 20.5535C77.4687 19.7976 78.5246 19.3111 79.6521 19.1557L79.9048 19.1212C80.0809 19.1212 80.2562 19.0954 80.4275 19.0954H82.5808C83.085 19.0837 83.5849 19.191 84.04 19.4084C84.3289 19.5554 84.5929 19.7468 84.8225 19.9757C85.4484 20.6047 85.7614 21.4328 85.7614 22.4599V46.868C85.7614 47.8962 85.4484 48.7242 84.8225 49.3523C84.1965 49.9803 83.3684 50.2933 82.3382 50.2912V50.7192H95.8744V50.2912H95.7883C94.7602 50.2912 93.9324 49.9782 93.3049 49.3523C92.6773 48.7263 92.3644 47.8982 92.3659 46.868V35.1315H92.7939C93.3359 35.1315 93.7855 35.2311 94.1429 35.4304C94.5002 35.6296 94.857 35.9948 95.2132 36.5258C95.5711 37.0547 96.0066 37.7899 96.5199 38.7315L100.717 46.4393C101.087 47.0965 101.494 47.8104 101.937 48.5808C102.381 49.3512 102.802 50.0648 103.2 50.7215H112.065V50.2936C111.394 50.3019 110.737 50.0991 110.188 49.7138ZM94.5396 34.5759H92.3558V19.1619H94.84C96.5812 19.1619 97.9799 19.8685 99.0362 21.2815C100.093 22.6946 100.621 24.5566 100.621 26.8674C100.621 29.1521 100.072 31.0078 98.9728 32.4344C97.8738 33.8611 96.395 34.5749 94.5364 34.5759H94.5396Z" fill="#D3B485"/>
<path d="M397.322 38.2714C396.838 37.1874 396.046 36.0659 394.946 34.9069C393.845 33.7478 392.353 32.4847 390.47 31.1175L388.629 29.7467C386.83 28.4067 385.568 27.2294 384.844 26.2148C384.119 25.2002 383.754 24.1366 383.748 23.024C383.748 21.7392 384.141 20.7114 384.926 19.9404C385.711 19.1695 386.761 18.7842 388.077 18.7848C389.932 18.7848 391.515 19.5555 392.826 21.0969C394.137 22.6383 394.994 24.7365 395.396 27.3916H395.824L395.396 18.7417C394.457 18.7417 393.683 18.7112 393.088 18.6564C392.493 18.6017 391.965 18.5273 391.523 18.4421C391.081 18.3568 390.628 18.2856 390.153 18.2277C389.549 18.1643 388.941 18.1356 388.333 18.1416C385.308 18.1416 382.874 18.8625 381.032 20.3043C379.189 21.746 378.268 23.723 378.27 26.2351C378.261 27.7274 378.693 29.189 379.511 30.4368C380.338 31.7216 381.821 33.1777 383.96 34.8052L385.721 36.1353C387.117 37.1932 388.287 38.1425 389.232 38.9834C390.171 39.8269 390.928 40.6015 391.501 41.3174C392.075 42.0333 392.479 42.7 392.718 43.3298C392.963 43.9578 393.088 44.626 393.087 45.3C393.087 46.897 392.525 48.1989 391.411 49.1966C390.371 50.13 389.039 50.6315 387.416 50.691H385.172C385.001 50.691 384.826 50.666 384.65 50.666L384.398 50.6315C383.598 50.5204 382.83 50.2421 382.145 49.8146C381.46 49.3871 380.873 48.8201 380.421 48.1504C380.057 47.61 379.787 47.0123 379.621 46.3821C379.496 45.9098 379.432 45.4232 379.432 44.9346V44.9174C379.432 44.8458 379.436 44.7742 379.445 44.703C379.491 43.7174 379.859 42.774 380.492 42.0169C381.579 40.7235 383.34 40.1797 384.971 40.5138C385.785 40.6805 386.552 41.1007 387.027 41.7986C387.394 42.3424 387.553 43.0098 387.579 43.6702C387.605 44.3306 387.51 44.9894 387.408 45.6396C388.129 45.5833 388.846 45.523 389.563 45.4667C389.528 44.5113 389.43 43.5262 389.002 42.6695C388.462 41.5905 387.437 40.8112 386.317 40.366C386.125 40.2882 385.929 40.2211 385.73 40.1649C383.534 39.5225 381.11 40.1696 379.795 42.121C379.471 42.6046 379.233 43.1403 379.09 43.7046C378.985 44.1075 378.933 44.5222 378.934 44.9385C378.935 46.4414 379.477 47.8936 380.462 49.0289C381.447 50.1642 382.807 50.9065 384.295 51.1198C384.588 51.1644 384.885 51.1856 385.182 51.1832H388.502C389.449 51.1871 390.39 51.0386 391.289 50.7434C391.341 50.7262 391.392 50.709 391.442 50.691C391.878 50.5405 392.304 50.3633 392.719 50.1605C394.392 49.3468 395.692 48.2115 396.641 46.7561C397.59 45.3008 398.05 43.6264 398.05 41.7485C398.059 40.5507 397.811 39.3647 397.322 38.2714Z" fill="#D3B485"/>
<path d="M137.138 18.7206L137.121 18.6032H110.44C110.267 19.777 109.88 20.909 109.297 21.9427C108.756 22.9169 108.488 24.0194 108.522 25.1334C108.534 25.6848 108.643 26.2298 108.843 26.7437C109.914 29.4822 112.77 30.4689 115.323 29.7279C115.52 29.6713 115.715 29.6042 115.905 29.5268C117.027 29.0769 118.05 28.2976 118.59 27.2186C119.022 26.3626 119.121 25.3815 119.15 24.4269V24.4222C118.435 24.3666 117.716 24.3064 117 24.2469C117.099 24.9018 117.197 25.5567 117.168 26.2163C117.138 26.8759 116.983 27.5465 116.615 28.0942C116.146 28.7921 115.374 29.2115 114.564 29.3742C112.928 29.7123 111.168 29.1685 110.08 27.8759C109.918 27.6823 109.773 27.4744 109.648 27.2546C109.524 27.0473 109.42 26.8295 109.335 26.6036C109.133 26.0848 109.027 25.5336 109.022 24.9769V24.9597C109.022 24.4713 109.086 23.985 109.211 23.513C109.498 22.4121 110.106 21.4211 110.957 20.6656C111.807 19.9101 112.863 19.4241 113.99 19.2691L114.243 19.2346C114.417 19.2346 114.594 19.2088 114.765 19.2088H118.755L118.743 19.2472H120.473V46.868C120.473 47.8951 120.157 48.7229 119.527 49.3514C118.896 49.98 118.07 50.293 117.047 50.2904H117.004L116.957 50.7184H130.579L130.536 50.2904C129.508 50.2904 128.677 49.9774 128.053 49.3514C127.429 48.7255 127.114 47.8953 127.114 46.868V19.2479H132.5C132.673 19.2479 132.848 19.2738 133.023 19.2738L133.276 19.3082C134.073 19.42 134.837 19.6977 135.52 20.1235C136.203 20.5492 136.789 21.1135 137.24 21.7799C137.411 22.0327 137.561 22.2991 137.689 22.5764C137.833 22.89 137.951 23.2154 138.04 23.549C138.165 24.0213 138.229 24.5079 138.229 24.9965V25.0137C138.223 25.2822 138.197 25.5498 138.15 25.8142C138.089 26.1534 137.987 26.484 137.846 26.7985C137.677 27.2023 137.447 27.578 137.165 27.9127C136.078 29.2052 134.317 29.749 132.686 29.4157C131.876 29.2483 131.105 28.8289 130.634 28.1349C130.262 27.5872 130.103 26.919 130.077 26.257C130.051 25.5951 130.146 24.937 130.249 24.2868C129.538 24.3416 128.823 24.4019 128.112 24.4621H128.091C128.125 25.4214 128.224 26.4018 128.652 27.2585C129.191 28.3375 130.216 29.1168 131.337 29.5667C131.529 29.645 131.728 29.7076 131.923 29.7678C134.124 30.4063 136.544 29.7592 137.859 27.8117C137.98 27.6319 138.088 27.4445 138.184 27.2507C138.235 27.1587 138.278 27.0627 138.313 26.9636C138.584 26.3422 138.723 25.6718 138.724 24.9942C138.725 24.1895 138.569 23.3923 138.266 22.6468C137.752 21.3793 137.333 20.0758 137.138 18.7206Z" fill="#D3B485"/>
<path d="M218.989 18.2817V18.7096C220.444 18.7649 221.464 19.2002 222.05 20.0155C222.635 20.8308 222.685 21.8801 222.2 23.1633L214.877 42.4339L208.325 23.1202C207.867 21.7207 207.823 20.636 208.193 19.8661C208.562 19.0962 209.363 18.7107 210.595 18.7096H210.762V18.2817H197.018V18.7096H197.104C198.243 18.7096 199.194 19.1009 199.947 19.8833C200.701 20.6657 201.356 21.8324 201.9 23.3738L204.728 31.2975L200.232 42.4316L192.652 23.1202C192.108 21.7505 192.051 20.6728 192.481 19.8872C192.81 19.284 193.392 18.9154 194.228 18.7746C194.277 18.7644 194.328 18.7568 194.378 18.7519C194.601 18.7225 194.825 18.7084 195.05 18.7096H195.218V18.2817H180.64C180.343 18.2799 180.047 18.3014 179.753 18.3458C178.266 18.5587 176.904 19.3009 175.919 20.4363C174.935 21.5717 174.392 23.0241 174.391 24.5271C174.393 25.5312 174.694 26.5119 175.257 27.3438C176.572 29.2921 178.991 29.9392 181.192 29.2999C181.391 29.2432 181.587 29.1758 181.778 29.0981C182.896 28.6529 183.925 27.8736 184.464 26.7946C184.892 25.9386 184.991 24.9527 185.025 23.9981C185.017 23.9981 185.007 23.9981 185.004 23.9942C184.293 23.9379 183.577 23.8784 182.867 23.8229C182.97 24.4731 183.063 25.1327 183.038 25.7923C183.013 26.4519 182.854 27.1224 182.481 27.6639C182.012 28.3618 181.239 28.7812 180.43 28.9486C178.799 29.2827 177.038 28.7389 175.951 27.4448C175.273 26.6315 174.897 25.6086 174.888 24.5498V24.5333C174.889 24.0445 174.952 23.5577 175.077 23.085C175.243 22.4552 175.514 21.8576 175.877 21.3167C176.33 20.6482 176.918 20.0824 177.603 19.656C178.289 19.2297 179.056 18.9523 179.856 18.8419L180.109 18.8075C180.285 18.8075 180.46 18.7824 180.631 18.7824H182.297C183.601 19.1032 184.797 20.6376 185.885 23.3855L196.934 51.0494H197.32L204.981 32.1214L211.75 51.0494H212.094L223.014 22.6578C223.442 21.5139 223.991 20.5716 224.662 19.8309C225.33 19.0899 226.054 18.7175 226.82 18.7175V18.2895L218.989 18.2817Z" fill="#D3B485"/>
<path d="M70.2575 69.9703C73.2363 69.9703 74.521 71.3278 74.521 73.2878C74.521 75.1977 73.2918 76.3706 71.0783 76.5889L74.6141 81.7647H74.1447L70.6448 76.6202H67.3539V81.7647H66.9814V69.9703H70.2575ZM70.2575 70.3052H67.3539V76.3041H70.2951C72.9757 76.3041 74.129 75.0139 74.129 73.2878C74.1298 71.4616 73.0688 70.3052 70.2575 70.3052Z" fill="#EDDFD3"/>
<path d="M101.962 70.2715H95.9269V75.7173H101.404V76.0193H95.9269V81.4643H101.959V81.7647H95.5544V69.9703H101.959L101.962 70.2715Z" fill="#EDDFD3"/>
<path d="M126.684 81.8829C124.059 81.8829 122.682 80.4745 122.496 78.9878H122.869C123.017 79.9596 123.874 81.5848 126.684 81.5848C128.844 81.5848 130.184 80.3782 130.184 78.9206C130.184 74.7486 122.719 77.3291 122.719 72.7886C122.719 71.2464 124.206 69.856 126.573 69.856C129.03 69.856 130.222 71.1963 130.501 72.3356H130.129C129.905 71.4984 128.9 70.158 126.573 70.158C124.695 70.158 123.092 71.1627 123.092 72.7886C123.092 77.0271 130.557 74.4474 130.557 78.9206C130.557 80.3415 129.291 81.8829 126.684 81.8829Z" fill="#EDDFD3"/>
<path d="M150.477 69.9703H158.482V70.2715H154.666V81.7647H154.297V70.2715H150.48L150.477 69.9703Z" fill="#EDDFD3"/>
<path d="M186.314 78.5153H179.836L178.458 81.7647H178.03L182.889 70.3208H183.261L188.098 81.7647H187.67L186.314 78.5153ZM183.075 70.8583L179.965 78.2132H186.183L183.075 70.8583Z" fill="#EDDFD3"/>
<path d="M208.766 69.9703H209.139V77.2923C209.139 80.4424 210.869 81.5817 213.178 81.5817C215.447 81.5817 217.125 80.4424 217.125 77.2923V69.9703H217.497V77.2923C217.497 80.5426 215.747 81.8829 213.178 81.8829C210.61 81.8829 208.766 80.5426 208.766 77.2923V69.9703Z" fill="#EDDFD3"/>
<path d="M242.462 69.9703C245.441 69.9703 246.725 71.3278 246.725 73.2878C246.725 75.1977 245.497 76.3706 243.283 76.5889L246.82 81.7663H246.354L242.855 76.6218H239.56V81.7647H239.187V69.9703H242.462ZM242.462 70.3052H239.558V76.3041H242.499C245.18 76.3041 246.333 75.0139 246.333 73.2878C246.335 71.4616 245.273 70.3052 242.462 70.3052Z" fill="#EDDFD3"/>
<path d="M275.027 78.5153H268.548L267.167 81.7647H266.739L271.597 70.3208H271.97L276.81 81.7647H276.382L275.027 78.5153ZM271.788 70.8583L268.678 78.2132H274.896L271.788 70.8583Z" fill="#EDDFD3"/>
<path d="M306.448 69.9867V81.7647H306.076L297.938 70.5884V81.7647H297.567V69.9867H297.938L306.076 81.1458V69.9867H306.448Z" fill="#EDDFD3"/>
<path d="M327.019 69.9703H335.024V70.2715H331.206V81.7647H330.833V70.2715H327.017L327.019 69.9703Z" fill="#EDDFD3"/>
</svg>
